# xmcd CD database file
#
# Track frame offsets:
#	150
#	8622
#	18534
#	30172
#	42925
#	53865
#	67975
#	81470
#	92880
#	104010
#	116640
#	129780
#	143212
#
# Disc length: 2107 seconds
#
# Revision: 0
# Processed by: cddbd v1.5.2PL0 Copyright (c) Steve Scherf et al.
# Submitted via: CDex 1.70beta2
#
DISCID=a508390d
DTITLE=The best of R&B - 3rd of 30 collector's CDs
DYEAR=1900
DGENRE=Blues
TTITLE0=Yakety Yak (1958) The Coasters
TTITLE1=Mr Lee (1957) The Bobbettes
TTITLE2=It's too late (1956) Chuck Willis
TTITLE3=Feel so good (1955) Shirley and Lee
TTITLE4=Sh-Boom (1954) The Chords
TTITLE5=Hittn' on me (1953) Buddy Johnson and Ella
TTITLE6=Night Train (1952) Jimmy Forest
TTITLE7=Tend to your business (1951) James Wayne
TTITLE8=Strollin' with bones (1950) T-Bone Walker
TTITLE9=Rockin' at midnight (1949) Roy Brown+Mighty,Mighty Men
TTITLE10=Fine brown frame (1948) Nellie Lutcher
TTITLE11=Down the road apiece (1947) Amos Milburn
TTITLE12=Got a right to cry (1945) Joe Liggins+Honeydrippers
EXTD=
EXTT0=
EXTT1=
EXTT2=
EXTT3=
EXTT4=
EXTT5=
EXTT6=
EXTT7=
EXTT8=
EXTT9=
EXTT10=
EXTT11=
EXTT12=
PLAYORDER=
